<svg width="60" height="60" viewBox="0 0 60 60" fill="none" xmlns="http://www.w3.org/2000/svg">
<circle cx="30" cy="30" r="30" fill="#000000"/>
<path d="M44.988 24.0188C44.9853 23.9919 44.9866 23.9661 44.9785 23.9391C44.9744 23.9256 44.9676 23.9122 44.9635 23.8986C44.9527 23.8704 44.938 23.8446 44.923 23.819C44.9095 23.7959 44.9 23.7717 44.8825 23.75C44.8785 23.7459 44.8785 23.7391 44.8744 23.7351C44.869 23.7283 44.8608 23.7256 44.8554 23.7188C44.835 23.697 44.8108 23.681 44.7877 23.662C44.7701 23.6484 44.7581 23.6296 44.7391 23.6174L39.5371 20.4805L39.5373 14.5405C39.5373 14.2419 39.2941 14 38.9968 14H21.0048C20.7061 14 20.4642 14.2419 20.4642 14.5405V20.4805L15.2622 23.6174C15.2419 23.6296 15.231 23.6484 15.2136 23.662C15.1905 23.681 15.1663 23.697 15.1446 23.7188C15.1392 23.7256 15.131 23.7283 15.1256 23.7351C15.1217 23.7403 15.1204 23.7457 15.1163 23.7511C15.1 23.7728 15.0905 23.7971 15.0769 23.8201C15.0622 23.8457 15.0473 23.8701 15.0378 23.8984C15.0324 23.912 15.0256 23.9253 15.0229 23.9389C15.0161 23.9658 15.0174 23.993 15.0133 24.0199C15.0109 24.0419 15 24.0593 15 24.081V44.9501C15 45.2487 15.2419 45.4906 15.5405 45.4906H44.4591C44.7578 45.4906 44.9997 45.2474 44.9997 44.9501L44.9999 24.081C45.0012 24.0593 44.9904 24.0405 44.9877 24.0188L44.988 24.0188ZM43.9189 25.2352V41.9228L35.0526 32.6093L43.9189 25.2352ZM43.5297 24.1511L39.5387 27.4706V21.7455L43.5297 24.1511ZM38.456 15.081V28.372L30.001 35.4056L21.546 28.372V15.081H38.456ZM16.0816 25.2337L24.8326 32.5129L16.0816 41.6549V25.2337ZM20.4645 27.4719L16.4721 24.1511L20.4645 21.7441V27.4719ZM16.0816 44.4092V43.2183L25.6655 33.2063L29.6538 36.5245C29.7538 36.6082 29.8769 36.6503 29.9997 36.6503C30.1228 36.6503 30.2457 36.6084 30.3457 36.5245L34.2193 33.3025L43.9179 43.4906V44.4083L16.0819 44.4081L16.0816 44.4092Z" fill="white"/>
<path d="M23.2944 18.5772H36.7071C37.0057 18.5772 37.2476 18.3353 37.2476 18.0366C37.2476 17.738 37.0044 17.4961 36.7071 17.4961H23.2944C22.9958 17.4961 22.7539 17.738 22.7539 18.0366C22.7539 18.3353 22.9958 18.5772 23.2944 18.5772Z" fill="white"/>
<path d="M23.2944 21.4597H36.7071C37.0057 21.4597 37.2476 21.2179 37.2476 20.9192C37.2476 20.6205 37.0044 20.3787 36.7071 20.3787H23.2944C22.9958 20.3787 22.7539 20.6205 22.7539 20.9192C22.7539 21.2179 22.9958 21.4597 23.2944 21.4597Z" fill="white"/>
<path d="M23.2944 24.3431H36.7071C37.0057 24.3431 37.2476 24.1013 37.2476 23.8026C37.2476 23.5039 37.0044 23.2621 36.7071 23.2621L23.2944 23.2618C22.9958 23.2618 22.7539 23.5037 22.7539 23.8024C22.7539 24.101 22.9958 24.3431 23.2944 24.3431V24.3431Z" fill="white"/>
<path d="M23.2944 27.226H36.7071C37.0057 27.226 37.2476 26.9841 37.2476 26.6854C37.2476 26.3868 37.0044 26.1449 36.7071 26.1449L23.2944 26.1447C22.9958 26.1447 22.7539 26.3865 22.7539 26.6852C22.7539 26.9839 22.9958 27.226 23.2944 27.226Z" fill="white"/>
</svg>
